<?xml version="1.0" encoding="UTF-8" standalone="no"?>
<!-- Created with Inkscape (http://www.inkscape.org/) -->

<svg
   xmlns:dc="http://purl.org/dc/elements/1.1/"
   xmlns:cc="http://creativecommons.org/ns#"
   xmlns:rdf="http://www.w3.org/1999/02/22-rdf-syntax-ns#"
   xmlns:svg="http://www.w3.org/2000/svg"
   xmlns="http://www.w3.org/2000/svg"
   xmlns:sodipodi="http://sodipodi.sourceforge.net/DTD/sodipodi-0.dtd"
   xmlns:inkscape="http://www.inkscape.org/namespaces/inkscape"
   version="1.1"
   id="svg4850"
   xml:space="preserve"
   width="800"
   height="800"
   viewBox="0 0 800 800"
   sodipodi:docname="robot-publicdomainvectors.org.svg"
   inkscape:version="0.92.4 (5da689c313, 2019-01-14)"><metadata
     id="metadata4856"><rdf:RDF><cc:Work
         rdf:about=""><dc:format>image/svg+xml</dc:format><dc:type
           rdf:resource="http://purl.org/dc/dcmitype/StillImage" /><dc:title></dc:title></cc:Work></rdf:RDF></metadata><defs
     id="defs4854"><clipPath
       clipPathUnits="userSpaceOnUse"
       id="clipPath4866"><path
         d="M 0,600 H 600 V 0 H 0 Z"
         id="path4864"
         inkscape:connector-curvature="0" /></clipPath></defs><sodipodi:namedview
     pagecolor="#ffffff"
     bordercolor="#666666"
     borderopacity="1"
     objecttolerance="10"
     gridtolerance="10"
     guidetolerance="10"
     inkscape:pageopacity="0"
     inkscape:pageshadow="2"
     inkscape:window-width="1920"
     inkscape:window-height="1018"
     id="namedview4852"
     showgrid="false"
     inkscape:zoom="0.95230038"
     inkscape:cx="415.25424"
     inkscape:cy="398.30508"
     inkscape:window-x="-8"
     inkscape:window-y="-8"
     inkscape:window-maximized="1"
     inkscape:current-layer="g4858" /><g
     id="g4858"
     inkscape:groupmode="layer"
     inkscape:label="robot-publicdomainvectors.org"
     transform="matrix(1.3333333,0,0,-1.3333333,0,800)"><g
       id="g4860"><g
         id="g4862"
         clip-path="url(#clipPath4866)"><path
           d="m 265.335,538.896 c -6.306,0 -11.248,-5.248 -11.248,-11.99 0,-6.743 4.942,-11.989 11.248,-11.989 h 43.838 c 6.306,0 11.248,5.246 11.248,11.989 0,6.742 -4.942,11.99 -11.248,11.99 z m -25.954,44.464 c 0,2.704 2.19,4.894 4.891,4.894 2.704,0 4.894,-2.19 4.894,-4.894 0,-1.753 -0.933,-3.282 -2.32,-4.144 2.095,-3.391 5.2,-8.439 8.263,-13.527 2.677,-4.446 5.316,-8.914 7.237,-12.359 0.485,-0.854 0.92,-1.658 1.3,-2.386 0.19,-0.368 0.372,-0.708 0.538,-1.024 0.043,-0.093 0.076,-0.012 0.116,-0.102 2.38,0.585 4.912,1.067 7.587,1.067 h 32.829 c 1.384,0 2.733,-0.263 4.062,-0.424 0.112,0.207 0.215,0.33 0.335,0.558 0.379,0.73 0.816,1.494 1.3,2.349 1.919,3.445 4.561,7.893 7.236,12.341 3.065,5.088 6.167,10.125 8.264,13.517 -1.388,0.863 -2.319,2.385 -2.319,4.14 0,2.703 2.189,4.891 4.891,4.891 2.703,0 4.894,-2.191 4.894,-4.895 0,-2.7 -2.191,-4.891 -4.894,-4.891 -0.655,0 -1.282,0.133 -1.855,0.368 -1.508,-3.69 -3.73,-9.169 -5.901,-14.672 -1.895,-4.807 -3.755,-9.631 -5.039,-13.234 -0.264,-0.73 -0.338,-1.389 -0.544,-2.001 10.427,-3.451 17.948,-12.058 17.948,-22.703 v -12.581 c 0,-13.895 -12.838,-24.21 -28.378,-24.21 h -32.829 c -15.538,0 -27.216,10.315 -27.216,24.21 v 12.581 c 0,9.333 5.31,17.098 13.325,21.201 -0.007,0.022 0.122,0.038 0.116,0.06 -0.105,0.309 -0.147,0.643 -0.266,1 -0.231,0.719 -0.48,1.541 -0.811,2.443 -1.285,3.603 -3.125,8.427 -5.023,13.234 -2.17,5.503 -4.385,10.982 -5.889,14.672 -0.576,-0.235 -1.197,-0.371 -1.856,-0.371 -2.699,0 -4.886,2.192 -4.886,4.892 M 372.117,351.797 c 0,1.423 -1.152,2.576 -2.576,2.576 -1.422,0 -2.576,-1.153 -2.576,-2.576 0,-1.425 1.154,-2.577 2.576,-2.577 1.424,0 2.576,1.152 2.576,2.577 m 35.301,57.567 c 1.84,-4.085 -13.893,-35.161 -29.538,-61.654 -2.802,-3.918 -7.061,-6.261 -11.392,-6.261 -2.248,0 -4.362,0.665 -6.12,1.921 l -0.149,0.105 c -5.256,3.755 -5.951,11.817 -1.645,17.853 17.047,19.937 43.488,48.017 48.782,48.081 z m 17.626,27.292 c -2.347,3.182 -7.021,5.579 -12.934,6.656 l -7.647,-13.002 -1.148,0.172 c -5.307,0.794 -9.059,4.101 -11.545,6.287 -0.578,0.508 -1.306,1.151 -1.818,1.517 -0.074,-0.244 -0.16,-0.596 -0.246,-1.102 1.44,-9.185 4.462,-21.94 8.226,-29.86 4.109,3.344 7.501,5.456 9.529,5.456 0.721,0 1.354,-0.192 1.885,-0.572 l 0.15,-0.105 c 1.045,-0.749 2.621,-1.883 0.133,-9.555 6.059,5.409 13.157,18.453 17.076,27.523 0.324,2.432 -0.234,4.649 -1.661,6.585 m -49.286,-50.927 -0.741,17.801 c -0.26,6.258 -5.632,11.542 -11.728,11.542 -0.136,0 -0.276,-10e-4 -0.413,-0.007 l -0.181,-0.007 c -2.82,-0.117 -5.397,-1.45 -7.26,-3.75 -1.895,-2.344 -2.864,-5.435 -2.727,-8.706 l 1.73,-41.54 c 0.417,0.813 0.882,1.612 1.433,2.381 2.984,3.495 10.967,12.735 19.887,22.286 m -13.208,32.761 0.181,0.007 c 5.502,0.198 10.563,-2.873 13.388,-7.413 0.158,0.916 0.226,1.857 0.186,2.822 l -0.787,18.875 c -0.316,7.584 -5.239,12.247 -14.589,13.147 -9.062,0.402 -23.697,0.489 -23.495,-4.31 6.261,-9.715 9.933,-21.2 12.535,-33.534 0.584,1.977 1.52,3.81 2.796,5.385 2.491,3.079 5.965,4.861 9.785,5.021 M 207.958,285.462 c -0.247,0 -0.482,-0.026 -0.704,-0.079 -6.248,-1.482 -9.327,-21.334 -9.824,-33.674 1.621,-6.235 8.237,-8.466 13.936,-8.466 1.514,0 3.056,0.15 4.595,0.443 l 2.168,14.478 1.13,0.268 c 1.213,0.291 2.482,0.433 3.768,0.433 3.572,0 6.723,-1.1 9.025,-1.905 0.781,-0.274 1.584,-0.554 2.152,-0.69 -0.025,0.237 -0.077,0.558 -0.171,0.995 -6.638,11.003 -19.455,28.197 -26.075,28.197 m 14.727,61.182 c 0,1.421 -1.153,2.576 -2.576,2.576 -1.422,0 -2.576,-1.155 -2.576,-2.576 0,-1.424 1.154,-2.578 2.576,-2.578 1.423,0 2.576,1.154 2.576,2.578 m 8.498,54.671 v -48.366 c 0,-6.459 -4.883,-11.883 -10.983,-11.883 h -0.182 c -6.006,0 -11.316,5.31 -11.316,11.883 v 48.366 c 0,6.537 5.31,11.689 11.316,11.689 h 0.182 c 6.1,0 10.983,-5.263 10.983,-11.689 m -11.165,14.686 h 0.182 c 5.708,0 10.766,-3.306 13.181,-8.398 2.111,12.054 5.447,23.479 11.14,33.179 0,4.801 -14.527,4.182 -23.563,3.403 -9.305,-1.288 -13.755,-6.076 -13.755,-13.665 v -18.893 c 0,-0.895 0.193,-2.069 0.355,-2.916 2.488,4.534 7.193,7.29 12.46,7.29 m 57.308,51.706 c 0,-2.844 1.715,-5.245 3.835,-5.245 h 20.454 c 2.121,0 3.838,2.401 3.838,5.245 0,2.845 -1.717,5.246 -3.838,5.246 h -20.454 c -2.12,0 -3.835,-2.401 -3.835,-5.246 m 22.652,6.745 c 1.782,0 3.221,2.401 3.221,5.245 0,2.845 -1.439,5.245 -3.221,5.245 H 282.8 c -1.778,0 -3.22,-2.4 -3.22,-5.245 0,-2.844 1.442,-5.245 3.22,-5.245 z m -27.3,-18.735 c 0,-2.844 2.306,-5.245 5.152,-5.245 h 27.482 c 2.846,0 5.153,2.401 5.153,5.245 0,2.845 -2.307,5.246 -5.153,5.246 H 277.83 c -2.846,0 -5.152,-2.401 -5.152,-5.246 M 319.729,150.55 c 8.775,0 15.89,7.115 15.89,15.888 0,8.776 -7.115,15.888 -15.89,15.888 -8.773,0 -15.885,-7.112 -15.885,-15.888 0,-8.773 7.112,-15.888 15.885,-15.888 m 0,-53.331 c -7.605,0 -18.812,-24.298 -24.171,-41.123 0.71,-3.226 9.892,-8.776 23.973,-8.776 h 0.398 c 14.082,0 23.264,5.55 23.974,8.776 -5.359,16.825 -16.566,41.123 -24.174,41.123 m -19.751,54.498 c 0,0 4.58,-32.943 11.204,-51.249 2.684,2.261 5.508,3.621 8.421,3.621 2.995,0 5.876,-1.446 8.599,-3.822 6.663,18.262 11.279,51.45 11.279,51.45 0,0.967 -0.134,1.905 -0.391,2.815 -4.011,-6.497 -11.178,-10.853 -19.361,-10.853 -8.181,0 -15.347,4.356 -19.359,10.853 -0.256,-0.91 -0.392,-1.848 -0.392,-2.815 M 263.05,150.55 c 8.773,0 15.888,7.115 15.888,15.888 0,8.776 -7.115,15.888 -15.888,15.888 -8.775,0 -15.888,-7.112 -15.888,-15.888 0,-8.773 7.113,-15.888 15.888,-15.888 m 60.114,110.213 c 0,1.896 -1.536,3.435 -3.435,3.435 -1.896,0 -3.435,-1.539 -3.435,-3.435 0,-1.898 1.539,-3.435 3.435,-3.435 1.899,0 3.435,1.537 3.435,3.435 m 18.039,-6.3 -3.437,-68.982 c 0,-1.556 -0.219,-3.035 -0.592,-4.478 -4.176,4.985 -10.445,8.179 -17.445,8.179 -6.995,0 -13.255,-3.167 -17.432,-8.15 -0.381,1.464 -0.604,2.998 -0.606,4.582 l -3.43,68.762 c 0,9.888 11.667,17.75 21.328,17.75 h 0.284 c 9.658,0 21.328,-7.862 21.33,-17.663 M 263.05,97.219 c -7.608,0 -18.814,-24.298 -24.175,-41.123 0.711,-3.226 9.894,-8.776 23.974,-8.776 h 0.401 c 14.078,0 23.263,5.55 23.973,8.776 -5.36,16.825 -16.568,41.123 -24.173,41.123 m -56.589,191.504 c 0.48,0.114 0.984,0.173 1.497,0.173 3.27,0 7.069,-2.489 10.825,-6.034 6.185,19.896 12.177,49.864 12.177,49.864 0.346,3.104 -0.144,6.312 -1.253,8.877 -2.586,-2.331 -5.915,-3.535 -9.507,-3.535 h -0.182 c -5.096,0 -9.565,2.638 -12.106,6.941 -2.035,-2.399 -3.446,-5.647 -3.838,-9.183 0,0 -0.644,-27.22 0.684,-47.732 0.543,0.306 1.104,0.488 1.703,0.629 m 36.835,-137.006 c 0,0 4.58,-32.943 11.204,-51.249 2.685,2.261 5.509,3.621 8.421,3.621 2.998,0 5.878,-1.446 8.6,-3.822 6.666,18.265 11.279,51.45 11.279,51.45 0,0.967 -0.134,1.905 -0.389,2.815 -4.014,-6.497 -11.179,-10.853 -19.361,-10.853 -8.184,0 -15.35,4.356 -19.36,10.853 -0.257,-0.91 -0.394,-1.848 -0.394,-2.815 m 20.612,109.046 c 0,1.422 -1.153,2.579 -2.575,2.579 -1.425,0 -2.58,-1.157 -2.58,-2.579 0,-1.424 1.155,-2.576 2.58,-2.576 1.422,0 2.575,1.152 2.575,2.576 m 18.896,-7.907 -3.438,-69.037 c 0,-0.495 -0.034,-0.987 -0.073,-1.469 -4.133,4.22 -9.885,6.846 -16.243,6.846 -7.962,0 -14.972,-4.116 -19.038,-10.327 -0.459,1.599 -0.717,3.281 -0.719,5.029 l -3.431,68.873 c 0,9.885 11.667,17.856 21.327,17.856 h 0.285 c 9.66,0 21.326,-7.971 21.33,-17.771 m -42.53,150.629 c 17.92,-3.982 32.872,-5.529 47.859,-5.639 v 49.629 h -25.697 c -10.952,0 -20.574,-18.812 -22.162,-43.99 m -0.099,-7.303 v -30.378 c 0,-28.764 10.268,-51.715 22.261,-51.715 h 57.91 c 11.99,0 20.242,22.951 20.242,51.715 v 30.378 c 0,1.285 0.373,2.555 0.34,3.815 -15.362,-2.9 -31.792,-5.607 -51.343,-5.607 -14.67,0 -30.844,1.55 -49.504,5.656 -0.042,-1.276 0.094,-2.561 0.094,-3.864 m 80.171,51.293 H 291.13 v -49.626 c 19.484,0.16 34.984,2.781 49.829,5.592 -1.383,25.2 -9.657,44.034 -20.613,44.034 M 294.879,255.64 h -8.83 c -1.614,10.491 -13.9,17.984 -24.575,17.984 h -0.285 c -6.484,0 -13.494,-2.774 -18.415,-7.552 -1.689,2.895 -2.599,6.39 -2.599,9.865 v 12.022 c 0,11.383 10.268,20.136 22.261,20.136 h 57.91 c 11.99,0 20.242,-8.753 20.242,-20.136 v -12.022 c 0,-3.203 -0.342,-6.557 -1.635,-9.283 -4.932,5.361 -12.14,8.469 -19.08,8.469 h -0.284 c -11.208,0 -24.165,-8.992 -24.71,-19.483"
           style="fill:#231f20;fill-opacity:1;fill-rule:nonzero;stroke:none"
           id="path4868"
           inkscape:connector-curvature="0" /><path
           d="m 309.171,534.399 h -43.838 c -4.378,0 -7.809,-3.427 -7.809,-8.242 0,-4.816 3.431,-8.243 7.809,-8.243 h 43.838 c 4.385,0 7.815,3.427 7.815,8.243 0,4.815 -3.43,8.242 -7.815,8.242"
           style="fill:#f8e623;fill-opacity:1;fill-rule:nonzero;stroke:none"
           id="path4870"
           inkscape:connector-curvature="0" /><path
           d="m 261.333,258.187 c 1.422,0 2.575,1.152 2.575,2.576 0,1.422 -1.153,2.575 -2.575,2.575 -1.423,0 -2.578,-1.153 -2.578,-2.575 0,-1.424 1.155,-2.576 2.578,-2.576"
           style="fill:#f8e623;fill-opacity:1;fill-rule:nonzero;stroke:none"
           id="path4872"
           inkscape:connector-curvature="0" /><path
           d="m 220.109,349.22 c -1.422,0 -2.576,-1.155 -2.576,-2.577 0,-1.422 1.154,-2.577 2.576,-2.577 1.423,0 2.576,1.155 2.576,2.577 0,1.422 -1.153,2.577 -2.576,2.577"
           style="fill:#f8e623;fill-opacity:1;fill-rule:nonzero;stroke:none"
           id="path4874"
           inkscape:connector-curvature="0" /><path
           d="m 369.541,349.22 c 1.424,0 2.576,1.155 2.576,2.575 0,1.425 -1.152,2.578 -2.576,2.578 -1.422,0 -2.576,-1.153 -2.576,-2.578 0,-1.42 1.154,-2.575 2.576,-2.575"
           style="fill:#f8e623;fill-opacity:1;fill-rule:nonzero;stroke:none"
           id="path4876"
           inkscape:connector-curvature="0" /><path
           d="m 319.729,257.328 c 1.9,0 3.437,1.537 3.437,3.435 0,1.896 -1.537,3.435 -3.437,3.435 -1.897,0 -3.435,-1.539 -3.435,-3.435 0,-1.898 1.538,-3.435 3.435,-3.435"
           style="fill:#f8e623;fill-opacity:1;fill-rule:nonzero;stroke:none"
           id="path4878"
           inkscape:connector-curvature="0" /><path
           d="m 201.489,252.136 c -0.092,-0.839 -0.768,-1.449 -1.51,-1.366 -0.74,0.081 -1.261,0.827 -1.171,1.67 l 1.197,10.632 c 0.097,0.834 0.771,1.449 1.514,1.364 0.743,-0.082 1.263,-0.829 1.17,-1.668 z"
           style="fill:#f8e623;fill-opacity:1;fill-rule:nonzero;stroke:none"
           id="path4880"
           inkscape:connector-curvature="0" /><path
           d="m 205.363,248.646 c -0.122,-1.053 -0.814,-1.837 -1.555,-1.755 -0.741,0.085 -1.246,1.004 -1.127,2.057 l 1.506,13.337 c 0.117,1.05 0.812,1.835 1.556,1.75 0.742,-0.082 1.242,-1.002 1.123,-2.056 z"
           style="fill:#f8e623;fill-opacity:1;fill-rule:nonzero;stroke:none"
           id="path4882"
           inkscape:connector-curvature="0" /><path
           d="m 209.316,247.563 c -0.128,-1.123 -0.828,-1.971 -1.57,-1.884 -0.742,0.079 -1.239,1.06 -1.112,2.189 l 1.609,14.276 c 0.127,1.125 0.831,1.97 1.571,1.887 0.741,-0.084 1.237,-1.064 1.112,-2.189 z"
           style="fill:#f8e623;fill-opacity:1;fill-rule:nonzero;stroke:none"
           id="path4884"
           inkscape:connector-curvature="0" /><path
           d="m 213.212,246.03 c -0.131,-1.2 -0.842,-2.107 -1.583,-2.022 -0.741,0.084 -1.229,1.123 -1.098,2.324 l 1.719,15.224 c 0.134,1.2 0.843,2.107 1.586,2.022 0.741,-0.084 1.228,-1.124 1.096,-2.324 z"
           style="fill:#f8e623;fill-opacity:1;fill-rule:nonzero;stroke:none"
           id="path4886"
           inkscape:connector-curvature="0" /><path
           d="m 422.613,434.71 c 0.411,0.86 1.239,1.28 1.845,0.94 0.608,-0.342 0.763,-1.313 0.355,-2.178 l -5.222,-10.915 c -0.413,-0.86 -1.237,-1.281 -1.849,-0.94 -0.606,0.341 -0.763,1.317 -0.353,2.176 z"
           style="fill:#f8e623;fill-opacity:1;fill-rule:nonzero;stroke:none"
           id="path4888"
           inkscape:connector-curvature="0" /><path
           d="m 419.313,436.563 c 0.413,0.858 1.24,1.281 1.847,0.938 0.606,-0.339 0.765,-1.315 0.355,-2.175 l -5.229,-10.913 c -0.409,-0.861 -1.228,-1.285 -1.841,-0.942 -0.608,0.342 -0.765,1.314 -0.349,2.175 z"
           style="fill:#f8e623;fill-opacity:1;fill-rule:nonzero;stroke:none"
           id="path4890"
           inkscape:connector-curvature="0" /><path
           d="m 416.017,438.414 c 0.412,0.861 1.231,1.284 1.843,0.941 0.607,-0.34 0.769,-1.314 0.354,-2.176 l -5.223,-10.913 c -0.407,-0.864 -1.238,-1.283 -1.845,-0.942 -0.606,0.343 -0.765,1.315 -0.355,2.176 z"
           style="fill:#f8e623;fill-opacity:1;fill-rule:nonzero;stroke:none"
           id="path4892"
           inkscape:connector-curvature="0" /><path
           d="m 412.716,440.27 c 0.412,0.86 1.238,1.282 1.847,0.94 0.605,-0.341 0.764,-1.315 0.352,-2.176 l -5.221,-10.914 c -0.414,-0.862 -1.241,-1.285 -1.847,-0.943 -0.61,0.34 -0.761,1.314 -0.356,2.177 z"
           style="fill:#f8e623;fill-opacity:1;fill-rule:nonzero;stroke:none"
           id="path4894"
           inkscape:connector-curvature="0" /></g></g></g></svg>